<svg width="21" height="17" viewBox="0 0 21 17" fill="none" xmlns="http://www.w3.org/2000/svg">
<path d="M0 0.5H21V5.83333H0V0.5Z" fill="#FF9933" style="fill:#FF9933;fill:color(display-p3 1.0000 0.6000 0.2000);fill-opacity:1;"/>
<path d="M0 5.83337H21V11.1667H0V5.83337Z" fill="white" style="fill:white;fill-opacity:1;"/>
<path d="M0 11.1666H21V16.5H0V11.1666Z" fill="#128807" style="fill:#128807;fill:color(display-p3 0.0706 0.5333 0.0275);fill-opacity:1;"/>
<path d="M10.5014 10.6334C11.6612 10.6334 12.6014 9.67824 12.6014 8.50003C12.6014 7.32183 11.6612 6.3667 10.5014 6.3667C9.34157 6.3667 8.40137 7.32183 8.40137 8.50003C8.40137 9.67824 9.34157 10.6334 10.5014 10.6334Z" fill="#000088" style="fill:#000088;fill:color(display-p3 0.0000 0.0000 0.5333);fill-opacity:1;"/>
<path d="M10.5013 10.3668C11.5161 10.3668 12.3388 9.53102 12.3388 8.50009C12.3388 7.46916 11.5161 6.63342 10.5013 6.63342C9.4865 6.63342 8.66382 7.46916 8.66382 8.50009C8.66382 9.53102 9.4865 10.3668 10.5013 10.3668Z" fill="white" style="fill:white;fill-opacity:1;"/>
<path d="M10.5013 8.87338C10.7043 8.87338 10.8688 8.70623 10.8688 8.50004C10.8688 8.29386 10.7043 8.12671 10.5013 8.12671C10.2983 8.12671 10.1338 8.29386 10.1338 8.50004C10.1338 8.70623 10.2983 8.87338 10.5013 8.87338Z" fill="#000088" style="fill:#000088;fill:color(display-p3 0.0000 0.0000 0.5333);fill-opacity:1;"/>
<path d="M12.3112 8.83948C12.363 8.84641 12.4104 8.8094 12.4172 8.75684C12.424 8.70427 12.3876 8.65605 12.3359 8.64913C12.2841 8.64221 12.2367 8.67921 12.2299 8.73178C12.223 8.78434 12.2595 8.83256 12.3112 8.83948Z" fill="#000088" style="fill:#000088;fill:color(display-p3 0.0000 0.0000 0.5333);fill-opacity:1;"/>
<path d="M10.5017 10.3666L10.5647 9.24659L10.5017 8.71326L10.4387 9.24659L10.5017 10.3666Z" fill="#000088" style="fill:#000088;fill:color(display-p3 0.0000 0.0000 0.5333);fill-opacity:1;"/>
<path d="M12.1659 9.30335C12.2142 9.32378 12.2695 9.30074 12.2893 9.2519C12.3092 9.20305 12.2861 9.1469 12.2377 9.12647C12.1893 9.10604 12.1341 9.12907 12.1142 9.17792C12.0944 9.22676 12.1175 9.28292 12.1659 9.30335Z" fill="#000088" style="fill:#000088;fill:color(display-p3 0.0000 0.0000 0.5333);fill-opacity:1;"/>
<path d="M10.0297 10.3028L10.3757 9.23804L10.4497 8.70624L10.2527 9.20447L10.0297 10.3028Z" fill="#000088" style="fill:#000088;fill:color(display-p3 0.0000 0.0000 0.5333);fill-opacity:1;"/>
<path d="M11.9033 9.71282C11.9449 9.74524 12.0042 9.73755 12.0358 9.69563C12.0675 9.65371 12.0594 9.59345 12.0179 9.56103C11.9763 9.5286 11.917 9.5363 11.8854 9.57822C11.8537 9.62013 11.8618 9.6804 11.9033 9.71282Z" fill="#000088" style="fill:#000088;fill:color(display-p3 0.0000 0.0000 0.5333);fill-opacity:1;"/>
<path d="M9.58512 10.1164L10.1908 9.17908L10.398 8.68511L10.0808 9.11454L9.58512 10.1164Z" fill="#000088" style="fill:#000088;fill:color(display-p3 0.0000 0.0000 0.5333);fill-opacity:1;"/>
<path d="M11.544 10.0395C11.5759 10.0817 11.6352 10.0898 11.6765 10.0577C11.7178 10.0255 11.7254 9.96527 11.6935 9.92308C11.6616 9.88088 11.6023 9.87274 11.561 9.90489C11.5197 9.93703 11.5121 9.9973 11.544 10.0395Z" fill="#000088" style="fill:#000088;fill:color(display-p3 0.0000 0.0000 0.5333);fill-opacity:1;"/>
<path d="M9.20195 9.81952L10.026 9.07349L10.3522 8.65101L9.93632 8.98241L9.20195 9.81952Z" fill="#000088" style="fill:#000088;fill:color(display-p3 0.0000 0.0000 0.5333);fill-opacity:1;"/>
<path d="M11.1144 10.2619C11.1342 10.3108 11.1895 10.3338 11.2378 10.3133C11.2862 10.2929 11.3094 10.2367 11.2895 10.1879C11.2697 10.1391 11.2144 10.1161 11.1661 10.1365C11.1177 10.157 11.0945 10.2131 11.1144 10.2619Z" fill="#000088" style="fill:#000088;fill:color(display-p3 0.0000 0.0000 0.5333);fill-opacity:1;"/>
<path d="M8.90785 9.4338L9.89424 8.92819L10.3178 8.60625L9.83178 8.81822L8.90785 9.4338Z" fill="#000088" style="fill:#000088;fill:color(display-p3 0.0000 0.0000 0.5333);fill-opacity:1;"/>
<path d="M10.6415 10.3637C10.6481 10.4161 10.6956 10.4528 10.7475 10.4458C10.7994 10.4387 10.8361 10.3905 10.8294 10.3381C10.8228 10.2856 10.7753 10.2489 10.7234 10.256C10.6715 10.2631 10.6348 10.3113 10.6415 10.3637Z" fill="#000088" style="fill:#000088;fill:color(display-p3 0.0000 0.0000 0.5333);fill-opacity:1;"/>
<path d="M8.7212 8.98379L9.80251 8.75421L10.2937 8.55458L9.77034 8.63186L8.7212 8.98379Z" fill="#000088" style="fill:#000088;fill:color(display-p3 0.0000 0.0000 0.5333);fill-opacity:1;"/>
<path d="M10.1653 10.3385C10.1583 10.3912 10.1945 10.4394 10.2461 10.4462C10.2977 10.4529 10.3452 10.4157 10.3521 10.3629C10.3591 10.3102 10.3229 10.262 10.2713 10.2552C10.2197 10.2485 10.1723 10.2857 10.1653 10.3385Z" fill="#000088" style="fill:#000088;fill:color(display-p3 0.0000 0.0000 0.5333);fill-opacity:1;"/>
<path d="M8.66178 8.50277L9.76378 8.56034L10.2889 8.49731L9.7642 8.4378L8.66178 8.50277Z" fill="#000088" style="fill:#000088;fill:color(display-p3 0.0000 0.0000 0.5333);fill-opacity:1;"/>
<path d="M9.70829 10.1877C9.68825 10.2368 9.71104 10.2929 9.75919 10.3131C9.80734 10.3334 9.86262 10.31 9.88266 10.2609C9.9027 10.2119 9.87991 10.1557 9.83176 10.1355C9.78361 10.1153 9.72833 10.1387 9.70829 10.1877Z" fill="#000088" style="fill:#000088;fill:color(display-p3 0.0000 0.0000 0.5333);fill-opacity:1;"/>
<path d="M8.72474 8.01723L9.77312 8.36881L10.2966 8.44448L9.80595 8.2445L8.72474 8.01723Z" fill="#000088" style="fill:#000088;fill:color(display-p3 0.0000 0.0000 0.5333);fill-opacity:1;"/>
<path d="M9.31082 9.92185C9.27919 9.96376 9.28724 10.024 9.32879 10.0565C9.37034 10.0889 9.42967 10.0812 9.46129 10.0393C9.49292 9.99736 9.48487 9.93709 9.44332 9.90467C9.40177 9.87224 9.34244 9.87994 9.31082 9.92185Z" fill="#000088" style="fill:#000088;fill:color(display-p3 0.0000 0.0000 0.5333);fill-opacity:1;"/>
<path d="M8.91351 7.56618L9.83744 8.18176L10.3235 8.39373L9.8999 8.07179L8.91351 7.56618Z" fill="#000088" style="fill:#000088;fill:color(display-p3 0.0000 0.0000 0.5333);fill-opacity:1;"/>
<path d="M8.98744 9.55936C8.94618 9.59149 8.93861 9.65175 8.97053 9.69396C9.00244 9.73618 9.06177 9.74435 9.10303 9.71222C9.14429 9.6801 9.15186 9.61983 9.11994 9.57762C9.08803 9.53541 9.0287 9.52723 8.98744 9.55936Z" fill="#000088" style="fill:#000088;fill:color(display-p3 0.0000 0.0000 0.5333);fill-opacity:1;"/>
<path d="M9.20397 7.17975L9.93977 8.01708L10.3554 8.34949L10.0282 7.92723L9.20397 7.17975Z" fill="#000088" style="fill:#000088;fill:color(display-p3 0.0000 0.0000 0.5333);fill-opacity:1;"/>
<path d="M8.76302 9.12473C8.71491 9.14491 8.69219 9.20106 8.71227 9.25016C8.73236 9.29926 8.78764 9.3227 8.83574 9.30252C8.88385 9.28235 8.90657 9.22619 8.88649 9.17709C8.86641 9.128 8.81113 9.10455 8.76302 9.12473Z" fill="#000088" style="fill:#000088;fill:color(display-p3 0.0000 0.0000 0.5333);fill-opacity:1;"/>
<path d="M9.57816 6.88315L10.0756 7.88517L10.3925 8.31537L10.1841 7.82156L9.57816 6.88315Z" fill="#000088" style="fill:#000088;fill:color(display-p3 0.0000 0.0000 0.5333);fill-opacity:1;"/>
<path d="M8.66586 8.64748C8.61423 8.65429 8.57798 8.70251 8.5849 8.75519C8.59183 8.80787 8.6393 8.84506 8.69093 8.83825C8.74257 8.83145 8.77881 8.78322 8.77189 8.73054C8.76497 8.67786 8.7175 8.64068 8.66586 8.64748Z" fill="#000088" style="fill:#000088;fill:color(display-p3 0.0000 0.0000 0.5333);fill-opacity:1;"/>
<path d="M10.0243 6.69669L10.2499 7.79514L10.4464 8.294L10.3707 7.76233L10.0243 6.69669Z" fill="#000088" style="fill:#000088;fill:color(display-p3 0.0000 0.0000 0.5333);fill-opacity:1;"/>
<path d="M8.69453 8.16081C8.64263 8.15373 8.59516 8.19047 8.5885 8.24287C8.58185 8.29527 8.61853 8.3435 8.67043 8.35058C8.72233 8.35766 8.7698 8.32092 8.77645 8.26852C8.78311 8.21612 8.74643 8.16789 8.69453 8.16081Z" fill="#000088" style="fill:#000088;fill:color(display-p3 0.0000 0.0000 0.5333);fill-opacity:1;"/>
<path d="M10.5018 6.63363L10.4449 7.75311L10.507 8.28652L10.5657 7.75355L10.5018 6.63363Z" fill="#000088" style="fill:#000088;fill:color(display-p3 0.0000 0.0000 0.5333);fill-opacity:1;"/>
<path d="M8.84 7.69653C8.79165 7.6761 8.73637 7.69914 8.71653 7.74798C8.69669 7.79683 8.71981 7.85298 8.76816 7.87341C8.81651 7.89384 8.87179 7.8708 8.89163 7.82196C8.91147 7.77312 8.88835 7.71696 8.84 7.69653Z" fill="#000088" style="fill:#000088;fill:color(display-p3 0.0000 0.0000 0.5333);fill-opacity:1;"/>
<path d="M10.9764 6.69721L10.6304 7.76196L10.5564 8.29376L10.7534 7.79553L10.9764 6.69721Z" fill="#000088" style="fill:#000088;fill:color(display-p3 0.0000 0.0000 0.5333);fill-opacity:1;"/>
<path d="M9.10228 7.28719C9.06073 7.25476 9.00141 7.26245 8.96978 7.30437C8.93816 7.34628 8.9462 7.40654 8.98775 7.43897C9.0293 7.47139 9.08863 7.4637 9.12025 7.42179C9.15188 7.37987 9.14383 7.31961 9.10228 7.28719Z" fill="#000088" style="fill:#000088;fill:color(display-p3 0.0000 0.0000 0.5333);fill-opacity:1;"/>
<path d="M11.4205 6.88374L10.8148 7.82103L10.6076 8.31501L10.9248 7.88559L11.4205 6.88374Z" fill="#000088" style="fill:#000088;fill:color(display-p3 0.0000 0.0000 0.5333);fill-opacity:1;"/>
<path d="M9.46176 6.96054C9.42984 6.91833 9.37052 6.91016 9.32926 6.94229C9.28799 6.97442 9.28042 7.03468 9.31233 7.07689C9.34425 7.1191 9.40357 7.12727 9.44483 7.09515C9.48609 7.06302 9.49367 7.00275 9.46176 6.96054Z" fill="#000088" style="fill:#000088;fill:color(display-p3 0.0000 0.0000 0.5333);fill-opacity:1;"/>
<path d="M11.804 7.1804L10.98 7.92633L10.6539 8.34883L11.0698 8.0175L11.804 7.1804Z" fill="#000088" style="fill:#000088;fill:color(display-p3 0.0000 0.0000 0.5333);fill-opacity:1;"/>
<path d="M9.89126 6.7383C9.87144 6.68948 9.81616 6.66647 9.76779 6.68692C9.71941 6.70737 9.69626 6.76353 9.71607 6.81235C9.73589 6.86118 9.79117 6.88418 9.83954 6.86373C9.88792 6.84328 9.91107 6.78712 9.89126 6.7383Z" fill="#000088" style="fill:#000088;fill:color(display-p3 0.0000 0.0000 0.5333);fill-opacity:1;"/>
<path d="M12.0978 7.56644L11.1114 8.07206L10.6878 8.39399L11.1738 8.18202L12.0978 7.56644Z" fill="#000088" style="fill:#000088;fill:color(display-p3 0.0000 0.0000 0.5333);fill-opacity:1;"/>
<path d="M10.3644 6.63655C10.3577 6.58414 10.3103 6.5474 10.2584 6.55448C10.2065 6.56156 10.1698 6.60979 10.1764 6.66219C10.1831 6.7146 10.2306 6.75134 10.2825 6.74426C10.3344 6.73718 10.371 6.68896 10.3644 6.63655Z" fill="#000088" style="fill:#000088;fill:color(display-p3 0.0000 0.0000 0.5333);fill-opacity:1;"/>
<path d="M12.2844 8.01633L11.2031 8.24591L10.7119 8.44554L11.2353 8.36826L12.2844 8.01633Z" fill="#000088" style="fill:#000088;fill:color(display-p3 0.0000 0.0000 0.5333);fill-opacity:1;"/>
<path d="M10.8403 6.66167C10.8473 6.60892 10.8111 6.56069 10.7596 6.55396C10.708 6.54722 10.6605 6.58452 10.6535 6.63727C10.6465 6.69003 10.6827 6.73825 10.7342 6.74498C10.7858 6.75172 10.8333 6.71442 10.8403 6.66167Z" fill="#000088" style="fill:#000088;fill:color(display-p3 0.0000 0.0000 0.5333);fill-opacity:1;"/>
<path d="M12.3438 8.49702L11.2419 8.44025L10.7168 8.50316L11.2414 8.56211L12.3438 8.49702Z" fill="#000088" style="fill:#000088;fill:color(display-p3 0.0000 0.0000 0.5333);fill-opacity:1;"/>
<path d="M11.2973 6.81237C11.3173 6.76329 11.2946 6.70714 11.2465 6.68694C11.1983 6.66675 11.1431 6.69017 11.123 6.73925C11.1029 6.78834 11.1257 6.84449 11.1738 6.86468C11.2219 6.88488 11.2772 6.86146 11.2973 6.81237Z" fill="#000088" style="fill:#000088;fill:color(display-p3 0.0000 0.0000 0.5333);fill-opacity:1;"/>
<path d="M12.2808 8.98274L11.2326 8.6312L10.7091 8.55576L11.1996 8.75578L12.2808 8.98274Z" fill="#000088" style="fill:#000088;fill:color(display-p3 0.0000 0.0000 0.5333);fill-opacity:1;"/>
<path d="M11.6942 7.07779C11.726 7.03565 11.7183 6.97539 11.677 6.94319C11.6356 6.91098 11.5763 6.91904 11.5445 6.96118C11.5126 7.00332 11.5203 7.06358 11.5617 7.09578C11.603 7.12798 11.6623 7.11993 11.6942 7.07779Z" fill="#000088" style="fill:#000088;fill:color(display-p3 0.0000 0.0000 0.5333);fill-opacity:1;"/>
<path d="M12.0915 9.43317L11.1685 8.81782L10.6823 8.60695L11.1052 8.92912L12.0915 9.43317Z" fill="#000088" style="fill:#000088;fill:color(display-p3 0.0000 0.0000 0.5333);fill-opacity:1;"/>
<path d="M12.0175 7.44027C12.059 7.40792 12.0669 7.34766 12.0352 7.30567C12.0035 7.26368 11.9442 7.25587 11.9027 7.28822C11.8613 7.32058 11.8533 7.38084 11.885 7.42283C11.9167 7.46481 11.9761 7.47262 12.0175 7.44027Z" fill="#000088" style="fill:#000088;fill:color(display-p3 0.0000 0.0000 0.5333);fill-opacity:1;"/>
<path d="M11.8012 9.81985L11.0665 8.9827L10.6507 8.65111L10.9771 9.07355L11.8012 9.81985Z" fill="#000088" style="fill:#000088;fill:color(display-p3 0.0000 0.0000 0.5333);fill-opacity:1;"/>
<path d="M12.242 7.87499C12.2903 7.85463 12.3133 7.79848 12.2934 7.74956C12.2735 7.70065 12.2182 7.67751 12.17 7.69787C12.1217 7.71823 12.0987 7.77439 12.1186 7.8233C12.1385 7.87221 12.1937 7.89536 12.242 7.87499Z" fill="#000088" style="fill:#000088;fill:color(display-p3 0.0000 0.0000 0.5333);fill-opacity:1;"/>
<path d="M11.4265 10.1166L10.9302 9.11471L10.6131 8.68504L10.8207 9.17896L11.4265 10.1166Z" fill="#000088" style="fill:#000088;fill:color(display-p3 0.0000 0.0000 0.5333);fill-opacity:1;"/>
<path d="M12.3397 8.35224C12.3915 8.34524 12.428 8.29702 12.4213 8.24453C12.4145 8.19203 12.3671 8.15515 12.3153 8.16214C12.2634 8.16914 12.2269 8.21736 12.2336 8.26985C12.2404 8.32234 12.2879 8.35923 12.3397 8.35224Z" fill="#000088" style="fill:#000088;fill:color(display-p3 0.0000 0.0000 0.5333);fill-opacity:1;"/>
<path d="M10.9808 10.303L10.757 9.20467L10.5602 8.70624L10.6347 9.238L10.9808 10.303Z" fill="#000088" style="fill:#000088;fill:color(display-p3 0.0000 0.0000 0.5333);fill-opacity:1;"/>
</svg>
